<svg width="39" height="35" viewBox="0 0 39 35" fill="none" xmlns="http://www.w3.org/2000/svg">
<path d="M37.7837 4.93908C36.1503 1.60457 31.4452 -1.12367 25.9722 0.464768C23.357 1.21623 21.0752 2.82777 19.4997 5.03608C17.9242 2.82777 15.6425 1.21623 13.0272 0.464768C7.54203 -1.09942 2.84916 1.60457 1.21579 4.93908C-1.0758 9.6074 -0.125031 14.8577 4.04371 20.5446C7.31044 24.9947 11.9789 29.5054 18.7562 34.7436C18.9704 34.9098 19.2342 35 19.5058 35C19.7774 35 20.0413 34.9098 20.2555 34.7436C27.0205 29.5175 31.7012 25.0432 34.9679 20.5446C39.1245 14.8577 40.0753 9.6074 37.7837 4.93908Z" fill="#562135"/>
</svg>
