<svg width="26" height="29" viewBox="0 0 26 29" fill="none" xmlns="http://www.w3.org/2000/svg">
<path d="M12.9987 0C11.9715 0 11.1416 0.809961 11.1416 1.8125V2.9C6.90505 3.73828 3.71313 7.39727 3.71313 11.7812V12.8461C3.71313 15.5082 2.70912 18.0797 0.898431 20.0734L0.468972 20.5436C-0.0185214 21.076 -0.134591 21.8406 0.161387 22.492C0.457365 23.1434 1.12477 23.5625 1.85601 23.5625H24.1414C24.8727 23.5625 25.5343 23.1434 25.8361 22.492C26.1378 21.8406 26.016 21.076 25.5285 20.5436L25.099 20.0734C23.2883 18.0797 22.2843 15.5139 22.2843 12.8461V11.7812C22.2843 7.39727 19.0924 3.73828 14.8558 2.9V1.8125C14.8558 0.809961 14.0259 0 12.9987 0ZM15.6277 27.9408C16.3241 27.2611 16.713 26.3379 16.713 25.375H9.28448C9.28448 26.3379 9.67332 27.2611 10.3697 27.9408C11.0662 28.6205 12.0121 29 12.9987 29C13.9853 29 14.9313 28.6205 15.6277 27.9408Z" fill="#562135"/>
</svg>
