<svg width="38" height="38" viewBox="0 0 38 38" fill="none" xmlns="http://www.w3.org/2000/svg">
<path fill-rule="evenodd" clip-rule="evenodd" d="M17.4817 0.618112C17.8776 0.222335 18.4145 0 18.9743 0C19.5341 0 20.071 0.222335 20.4669 0.618112L33.1337 13.2849L37.356 17.5072C37.7405 17.9054 37.9533 18.4386 37.9485 18.9922C37.9437 19.5457 37.7217 20.0752 37.3302 20.4666C36.9388 20.8581 36.4093 21.0801 35.8558 21.0849C35.3023 21.0897 34.769 20.8769 34.3708 20.4924L33.7522 19.8738V33.7777C33.7522 34.8976 33.3074 35.9715 32.5156 36.7633C31.7237 37.5552 30.6498 38 29.53 38H23.1966C22.6367 38 22.0997 37.7776 21.7038 37.3817C21.3078 36.9858 21.0854 36.4488 21.0854 35.8889V29.5555H16.8632V35.8889C16.8632 36.4488 16.6407 36.9858 16.2448 37.3817C15.8489 37.7776 15.3119 38 14.752 38H8.41861C7.29879 38 6.22484 37.5552 5.43301 36.7633C4.64118 35.9715 4.19633 34.8976 4.19633 33.7777V19.8738L3.57777 20.4924C3.1796 20.8769 2.64633 21.0897 2.09279 21.0849C1.53926 21.0801 1.00976 20.8581 0.618338 20.4666C0.226916 20.0752 0.00488986 19.5457 7.98065e-05 18.9922C-0.00473025 18.4386 0.20806 17.9054 0.592621 17.5072L4.8149 13.2849L17.4817 0.618112Z" fill="#562135"/>
</svg>
