<svg width="25" height="23" viewBox="0 0 25 23" fill="none" xmlns="http://www.w3.org/2000/svg">
<path d="M12.625 18.723L12.5 18.8434L12.3625 18.723C6.425 13.5336 2.5 10.102 2.5 6.62229C2.5 4.21418 4.375 2.40811 6.875 2.40811C8.8 2.40811 10.675 3.61216 11.3375 5.24967H13.6625C14.325 3.61216 16.2 2.40811 18.125 2.40811C20.625 2.40811 22.5 4.21418 22.5 6.62229C22.5 10.102 18.575 13.5336 12.625 18.723ZM18.125 0C15.95 0 13.8625 0.975283 12.5 2.50443C11.1375 0.975283 9.05 0 6.875 0C3.025 0 0 2.90177 0 6.62229C0 11.1616 4.25 14.8821 10.6875 20.505L12.5 22.0944L14.3125 20.505C20.75 14.8821 25 11.1616 25 6.62229C25 2.90177 21.975 0 18.125 0Z" fill="#C3829E"/>
</svg>
