<svg width="19" height="19" viewBox="0 0 19 19" fill="none" xmlns="http://www.w3.org/2000/svg">
<path d="M9.45719 2.37457C10.8289 2.3748 12.1716 2.76755 13.3255 3.50604C14.4793 4.24454 15.3956 5.29765 15.9653 6.53995C16.5349 7.78225 16.7339 9.16138 16.5385 10.5131C16.3431 11.8648 15.7616 13.1321 14.8631 14.164C13.9647 15.196 12.7873 15.9491 11.4711 16.3337C10.1549 16.7183 8.75542 16.7181 7.43932 16.3332C6.12321 15.9483 4.94596 15.195 4.04779 14.1628C3.14961 13.1306 2.56837 11.8632 2.37328 10.5114C2.32858 10.1997 2.16132 9.91842 1.90829 9.72945C1.65527 9.54049 1.33721 9.45933 1.02408 9.50384C0.710948 9.54834 0.428403 9.71486 0.238597 9.96676C0.0487912 10.2187 -0.0327271 10.5353 0.0119754 10.8471C0.313502 12.9429 1.30962 14.8783 2.84217 16.3462C4.37473 17.814 6.35589 18.7302 8.47113 18.9491C10.5864 19.168 12.7144 18.6772 14.5175 17.5545C16.3205 16.4319 17.6952 14.7418 18.4233 12.7525C19.1514 10.7633 19.1912 8.58891 18.5363 6.57461C17.8814 4.5603 16.5694 2.82152 14.8085 1.63431C13.0477 0.447102 10.939 -0.120484 8.81714 0.0216614C6.6953 0.163807 4.68197 1.00754 3.09678 2.4189V1.18729C3.09678 0.872399 2.97113 0.570408 2.74748 0.347748C2.52383 0.125089 2.22049 0 1.9042 0C1.58791 0 1.28457 0.125089 1.06092 0.347748C0.837267 0.570408 0.711621 0.872399 0.711621 1.18729V5.93644C0.711621 6.59182 1.2459 7.12372 1.9042 7.12372H5.87946C6.19575 7.12372 6.49909 6.99863 6.72274 6.77597C6.94639 6.55332 7.07204 6.25132 7.07204 5.93644C7.07204 5.62155 6.94639 5.31956 6.72274 5.0969C6.49909 4.87424 6.19575 4.74915 5.87946 4.74915H4.12398C4.79436 4.00117 5.61615 3.40289 6.53533 2.99363C7.45451 2.58437 8.45028 2.3734 9.45719 2.37457ZM10.2522 5.93644C10.2522 5.62155 10.1266 5.31956 9.90294 5.0969C9.67929 4.87424 9.37596 4.74915 9.05967 4.74915C8.74337 4.74915 8.44004 4.87424 8.21639 5.0969C7.99273 5.31956 7.86709 5.62155 7.86709 5.93644V9.89406C7.86709 10.5494 8.40136 11.0813 9.05967 11.0813H12.2399C12.5562 11.0813 12.8595 10.9563 13.0832 10.7336C13.3068 10.5109 13.4325 10.2089 13.4325 9.89406C13.4325 9.57917 13.3068 9.27718 13.0832 9.05452C12.8595 8.83186 12.5562 8.70677 12.2399 8.70677H10.2522V5.93644Z" fill="#E9B1CD"/>
</svg>
