<svg width="71" height="71" viewBox="0 0 71 71" fill="none" xmlns="http://www.w3.org/2000/svg">
<path d="M35.5 69C39.8993 69 44.2555 68.1335 48.3199 66.45C52.3843 64.7664 56.0773 62.2988 59.1881 59.1881C62.2988 56.0773 64.7664 52.3843 66.45 48.3199C68.1335 44.2555 69 39.8993 69 35.5C69 31.1007 68.1335 26.7445 66.45 22.6801C64.7664 18.6157 62.2988 14.9227 59.1881 11.8119C56.0773 8.70116 52.3843 6.23357 48.3199 4.55004C44.2555 2.8665 39.8993 2 35.5 2M35.5 69C31.1007 69 26.7445 68.1335 22.6801 66.45C18.6157 64.7664 14.9227 62.2988 11.8119 59.1881C8.70116 56.0773 6.23357 52.3843 4.55004 48.3199C2.8665 44.2555 2 39.8993 2 35.5C2 31.1007 2.8665 26.7445 4.55004 22.6801C6.23357 18.6157 8.70116 14.9227 11.8119 11.8119C14.9227 8.70116 18.6157 6.23357 22.6801 4.55004C26.7445 2.8665 31.1007 2 35.5 2M35.5 69C45.7771 69 50.1693 49.7822 50.1693 35.5C50.1693 21.2178 45.7771 2 35.5 2M35.5 69C25.2229 69 20.8307 49.7822 20.8307 35.5C20.8307 21.2178 25.2229 2 35.5 2M3.86111 24.3333H67.1389M3.86111 46.6667H67.1389" stroke="#C3829E" stroke-width="4" stroke-linecap="round" stroke-linejoin="round"/>
</svg>
