<svg width="25" height="19" viewBox="0 0 25 19" fill="none" xmlns="http://www.w3.org/2000/svg">
<path d="M25 13.8183C25 14.0474 24.9122 14.267 24.7559 14.429C24.5996 14.591 24.3877 14.6819 24.1667 14.6819H0.833333C0.61232 14.6819 0.400358 14.591 0.244078 14.429C0.0877973 14.267 0 14.0474 0 13.8183C0 13.5893 0.0877973 13.3696 0.244078 13.2077C0.400358 13.0457 0.61232 12.9547 0.833333 12.9547H5.04688C5.01612 12.6679 5.00047 12.3797 5 12.0911C5 10.0297 5.79018 8.05275 7.1967 6.59512C8.60322 5.1375 10.5109 4.31861 12.5 4.31861C14.4891 4.31861 16.3968 5.1375 17.8033 6.59512C19.2098 8.05275 20 10.0297 20 12.0911C19.9995 12.3797 19.9839 12.6679 19.9531 12.9547H24.1667C24.3877 12.9547 24.5996 13.0457 24.7559 13.2077C24.9122 13.3696 25 13.5893 25 13.8183ZM20.8333 17.2728H4.16667C3.94565 17.2728 3.73369 17.3638 3.57741 17.5257C3.42113 17.6877 3.33333 17.9073 3.33333 18.1364C3.33333 18.3654 3.42113 18.5851 3.57741 18.7471C3.73369 18.909 3.94565 19 4.16667 19H20.8333C21.0543 19 21.2663 18.909 21.4226 18.7471C21.5789 18.5851 21.6667 18.3654 21.6667 18.1364C21.6667 17.9073 21.5789 17.6877 21.4226 17.5257C21.2663 17.3638 21.0543 17.2728 20.8333 17.2728ZM7.5875 2.97785C7.63647 3.07936 7.70426 3.16987 7.78698 3.24422C7.86971 3.31858 7.96576 3.37532 8.06964 3.41121C8.17353 3.44709 8.28322 3.46142 8.39244 3.45338C8.50167 3.44533 8.60831 3.41507 8.70625 3.36432C8.80419 3.31357 8.89153 3.24332 8.96328 3.15759C9.03503 3.07186 9.08978 2.97232 9.12441 2.86466C9.15904 2.757 9.17286 2.64333 9.1651 2.53013C9.15734 2.41693 9.12814 2.30642 9.07917 2.20492L8.24583 0.477699C8.14693 0.272704 7.9735 0.116823 7.76369 0.0443469C7.55389 -0.0281296 7.32489 -0.0112642 7.12708 0.091233C6.92928 0.19373 6.77886 0.373463 6.70892 0.590892C6.63899 0.808322 6.65526 1.04564 6.75417 1.25063L7.5875 2.97785ZM1.29375 7.68238L2.96042 8.54599C3.15809 8.64848 3.38695 8.66541 3.59666 8.59303C3.80637 8.52066 3.97974 8.36491 4.07865 8.16006C4.17755 7.95521 4.19388 7.71803 4.12404 7.5007C4.0542 7.28338 3.90392 7.1037 3.70625 7.0012L2.03958 6.13759C1.94171 6.08684 1.83514 6.05656 1.72598 6.04849C1.61681 6.04042 1.50718 6.05471 1.40334 6.09055C1.29951 6.12638 1.2035 6.18306 1.1208 6.25735C1.0381 6.33164 0.970326 6.42209 0.921354 6.52352C0.872382 6.62495 0.843167 6.73538 0.835379 6.84852C0.82759 6.96165 0.841379 7.07526 0.875959 7.18287C0.910539 7.29048 0.965233 7.38998 1.03692 7.47569C1.1086 7.56139 1.19587 7.63162 1.29375 7.68238ZM21.6667 8.63667C21.7957 8.63669 21.923 8.60565 22.0385 8.54599L23.7052 7.68238C23.8031 7.63162 23.8904 7.56139 23.962 7.47569C24.0337 7.38998 24.0884 7.29048 24.123 7.18287C24.1576 7.07526 24.1714 6.96165 24.1636 6.84852C24.1558 6.73538 24.1266 6.62495 24.0776 6.52352C24.0286 6.42209 23.9609 6.33164 23.8782 6.25735C23.7955 6.18306 23.6995 6.12638 23.5956 6.09055C23.4918 6.05471 23.3821 6.04042 23.273 6.04849C23.1638 6.05656 23.0573 6.08684 22.9594 6.13759L21.2927 7.0012C21.125 7.08842 20.9906 7.23174 20.9113 7.40796C20.832 7.58418 20.8124 7.78298 20.8556 7.97218C20.8989 8.16139 21.0025 8.32993 21.1497 8.45052C21.2969 8.57112 21.479 8.6367 21.6667 8.63667ZM16.2937 3.36432C16.3917 3.41515 16.4983 3.44547 16.6076 3.45355C16.7168 3.46163 16.8265 3.44732 16.9304 3.41142C17.0343 3.37553 17.1304 3.31876 17.2131 3.24437C17.2958 3.16997 17.3636 3.07941 17.4125 2.97785L18.2458 1.25063C18.3447 1.04564 18.361 0.808322 18.2911 0.590892C18.2211 0.373463 18.0707 0.19373 17.8729 0.091233C17.6751 -0.0112642 17.4461 -0.0281296 17.2363 0.0443469C17.0265 0.116823 16.8531 0.272704 16.7542 0.477699L15.9208 2.20492C15.8718 2.30641 15.8425 2.41692 15.8347 2.53014C15.8269 2.64335 15.8407 2.75705 15.8754 2.86473C15.91 2.97241 15.9648 3.07196 16.0366 3.15768C16.1084 3.24341 16.1958 3.31362 16.2937 3.36432Z" fill="#C3829E"/>
</svg>
