<svg width="81" height="76" viewBox="0 0 81 76" fill="none" xmlns="http://www.w3.org/2000/svg">
<path d="M76.5697 10.125H68.3433V15.1521H75.9369V70.4502H5.06307V15.1521H12.6567V10.125H4.43027C3.83856 10.1348 3.2546 10.2603 2.71174 10.4943C2.16888 10.7282 1.67776 11.0661 1.26641 11.4886C0.855067 11.9111 0.531565 12.4099 0.314383 12.9565C0.0972014 13.5032 -0.00940588 14.087 0.00065065 14.6745V70.9277C-0.00940588 71.5153 0.0972014 72.0991 0.314383 72.6457C0.531565 73.1924 0.855067 73.6912 1.26641 74.1137C1.67776 74.5362 2.16888 74.874 2.71174 75.108C3.2546 75.342 3.83856 75.4674 4.43027 75.4773H76.5697C77.1614 75.4674 77.7454 75.342 78.2882 75.108C78.8311 74.874 79.3222 74.5362 79.7336 74.1137C80.1449 73.6912 80.4684 73.1924 80.6856 72.6457C80.9028 72.0991 81.0094 71.5153 80.9993 70.9277V14.6745C81.0094 14.087 80.9028 13.5032 80.6856 12.9565C80.4684 12.4099 80.1449 11.9111 79.7336 11.4886C79.3222 11.0661 78.8311 10.7282 78.2882 10.4943C77.7454 10.2603 77.1614 10.1348 76.5697 10.125Z" fill="#C3829E"/>
<path d="M15.6477 30.375H20.25V35.8977H15.6477V30.375Z" fill="#C3829E"/>
<path d="M30.375 30.375H35.8977V35.8977H30.375V30.375Z" fill="#C3829E"/>
<path d="M45.1023 30.375H50.625V35.8977H45.1023V30.375Z" fill="#C3829E"/>
<path d="M60.75 30.375H65.3523V35.8977H60.75V30.375Z" fill="#C3829E"/>
<path d="M15.6477 43.2614H20.25V47.8637H15.6477V43.2614Z" fill="#C3829E"/>
<path d="M30.375 43.2614H35.8977V47.8637H30.375V43.2614Z" fill="#C3829E"/>
<path d="M45.1023 43.2614H50.625V47.8637H45.1023V43.2614Z" fill="#C3829E"/>
<path d="M60.75 43.2614H65.3523V47.8637H60.75V43.2614Z" fill="#C3829E"/>
<path d="M15.6477 55.2273H20.25V60.75H15.6477V55.2273Z" fill="#C3829E"/>
<path d="M30.375 55.2273H35.8977V60.75H30.375V55.2273Z" fill="#C3829E"/>
<path d="M45.1023 55.2273H50.625V60.75H45.1023V55.2273Z" fill="#C3829E"/>
<path d="M60.75 55.2273H65.3523V60.75H60.75V55.2273Z" fill="#C3829E"/>
<path d="M20.25 20.25C20.9823 20.25 21.6847 19.9833 22.2026 19.5086C22.7204 19.0339 23.0114 18.3901 23.0114 17.7187V2.53125C23.0114 1.85992 22.7204 1.21609 22.2026 0.741386C21.6847 0.266684 20.9823 0 20.25 0C19.5176 0 18.8153 0.266684 18.2974 0.741386C17.7796 1.21609 17.4886 1.85992 17.4886 2.53125V17.7187C17.4886 18.3901 17.7796 19.0339 18.2974 19.5086C18.8153 19.9833 19.5176 20.25 20.25 20.25Z" fill="#C3829E"/>
<path d="M60.2897 20.25C60.9 20.25 61.4853 19.9833 61.9169 19.5086C62.3484 19.0339 62.5909 18.3901 62.5909 17.7187V2.53125C62.5909 1.85992 62.3484 1.21609 61.9169 0.741386C61.4853 0.266684 60.9 0 60.2897 0C59.6794 0 59.0941 0.266684 58.6626 0.741386C58.231 1.21609 57.9886 1.85992 57.9886 2.53125V17.7187C57.9886 18.3901 58.231 19.0339 58.6626 19.5086C59.0941 19.9833 59.6794 20.25 60.2897 20.25Z" fill="#C3829E"/>
<path d="M27.6136 10.125H53.3864V15.6477H27.6136V10.125Z" fill="#C3829E"/>
</svg>
