<svg width="40" height="40" viewBox="0 0 40 40" fill="none" xmlns="http://www.w3.org/2000/svg">
<path fill-rule="evenodd" clip-rule="evenodd" d="M30.3068 27.3054C32.9453 23.9037 34.1888 19.6247 33.7843 15.3388C33.3799 11.0528 31.3578 7.08197 28.1295 4.23402C24.9012 1.38607 20.7091 -0.125043 16.4062 0.00810728C12.1033 0.141258 8.01275 1.90867 4.9667 4.95077C1.91801 7.99499 0.144817 12.0871 0.00848511 16.3933C-0.127847 20.6995 1.38294 24.8956 4.23297 28.1266C7.08299 31.3576 11.0578 33.3802 15.3473 33.7824C19.6368 34.1845 23.9183 32.9359 27.3192 30.2909L27.4102 30.3861L36.3859 39.3639C36.5824 39.5605 36.8158 39.7165 37.0727 39.8229C37.3295 39.9293 37.6048 39.984 37.8829 39.984C38.1609 39.984 38.4362 39.9293 38.693 39.8229C38.9499 39.7165 39.1833 39.5605 39.3799 39.3639C39.5765 39.1673 39.7324 38.934 39.8388 38.6771C39.9452 38.4202 39.9999 38.1449 39.9999 37.8669C39.9999 37.5889 39.9452 37.3136 39.8388 37.0568C39.7324 36.7999 39.5765 36.5665 39.3799 36.3699L30.4021 27.3942C30.3711 27.3637 30.3394 27.3341 30.3068 27.3054ZM25.9142 7.94479C27.1089 9.12013 28.059 10.5204 28.7098 12.0648C29.3605 13.6091 29.6991 15.2671 29.7059 16.9429C29.7128 18.6188 29.3877 20.2795 28.7495 21.8291C28.1113 23.3787 27.1726 24.7867 25.9876 25.9717C24.8026 27.1567 23.3946 28.0954 21.845 28.7336C20.2954 29.3718 18.6348 29.6968 16.9589 29.69C15.283 29.6832 13.6251 29.3446 12.0807 28.6938C10.5363 28.043 9.13606 27.0929 7.96071 25.8983C5.61188 23.5109 4.30158 20.2921 4.31521 16.9429C4.32885 13.5938 5.66533 10.3858 8.03352 8.01759C10.4017 5.6494 13.6098 4.31292 16.9589 4.29928C20.308 4.28565 23.5268 5.59595 25.9142 7.94479Z" fill="#562135"/>
</svg>
