<svg width="23" height="25" viewBox="0 0 23 25" fill="none" xmlns="http://www.w3.org/2000/svg">
<path fill-rule="evenodd" clip-rule="evenodd" d="M11.5 0C11.866 0 12.217 0.152226 12.4758 0.423191C12.7346 0.694155 12.88 1.06166 12.88 1.44486V10.5957H21.62C21.986 10.5957 22.337 10.7479 22.5958 11.0189C22.8546 11.2898 23 11.6573 23 12.0405C23 12.4237 22.8546 12.7912 22.5958 13.0622C22.337 13.3332 21.986 13.4854 21.62 13.4854H12.88V22.6362C12.88 23.0194 12.7346 23.3869 12.4758 23.6579C12.217 23.9288 11.866 24.0811 11.5 24.0811C11.134 24.0811 10.783 23.9288 10.5242 23.6579C10.2654 23.3869 10.12 23.0194 10.12 22.6362V13.4854H1.38C1.014 13.4854 0.662993 13.3332 0.404193 13.0622C0.145392 12.7912 0 12.4237 0 12.0405C0 11.6573 0.145392 11.2898 0.404193 11.0189C0.662993 10.7479 1.014 10.5957 1.38 10.5957H10.12V1.44486C10.12 1.06166 10.2654 0.694155 10.5242 0.423191C10.783 0.152226 11.134 0 11.5 0Z" fill="#562135"/>
</svg>
