<svg width="12" height="18" viewBox="0 0 12 18" fill="none" xmlns="http://www.w3.org/2000/svg">
<path d="M6.00419 11.6813C7.67296 11.6813 8.79665 10.4319 8.79665 8.6457V3.03564C8.79665 1.24109 7.67296 0 6.00419 0C4.32704 0 3.20335 1.24109 3.20335 3.03564V8.6457C3.20335 10.4319 4.32704 11.6813 6.00419 11.6813ZM0 8.77987C0 12.0671 2.17191 14.3732 5.36688 14.6415V16.5954H2.25577C1.90356 16.5954 1.61845 16.8805 1.61845 17.2327C1.61845 17.5849 1.90356 17.8616 2.25577 17.8616H9.74423C10.0964 17.8616 10.3816 17.5849 10.3816 17.2327C10.3816 16.8805 10.0964 16.5954 9.74423 16.5954H6.63312V14.6415C9.83648 14.3732 12 12.0671 12 8.77987V7.07757C12 6.72537 11.7233 6.44864 11.3711 6.44864C11.0189 6.44864 10.7338 6.72537 10.7338 7.07757V8.72956C10.7338 11.5891 8.87212 13.4843 6.00419 13.4843C3.12788 13.4843 1.26625 11.5891 1.26625 8.72956V7.07757C1.26625 6.72537 0.989518 6.44864 0.628931 6.44864C0.27673 6.44864 0 6.72537 0 7.07757V8.77987Z" fill="#562135"/>
</svg>
