<svg width="20" height="25" viewBox="0 0 20 25" fill="none" xmlns="http://www.w3.org/2000/svg">
<path d="M9.11625 0.352534C9.35066 0.126807 9.66854 0 10 0C10.3315 0 10.6493 0.126807 10.8837 0.352534L14.6337 3.96473C14.8614 4.19182 14.9874 4.49597 14.9846 4.81167C14.9817 5.12737 14.8503 5.42937 14.6185 5.65261C14.3868 5.87586 14.0732 6.00249 13.7455 6.00523C13.4178 6.00797 13.102 5.88661 12.8663 5.66728L11.25 4.11042V15.6526C11.25 15.9719 11.1183 16.2782 10.8839 16.504C10.6495 16.7298 10.3315 16.8567 10 16.8567C9.66848 16.8567 9.35054 16.7298 9.11612 16.504C8.8817 16.2782 8.75 15.9719 8.75 15.6526V4.11042L7.13375 5.66728C6.898 5.88661 6.58224 6.00797 6.2545 6.00523C5.92675 6.00249 5.61324 5.87586 5.38148 5.65261C5.14972 5.42937 5.01826 5.12737 5.01541 4.81167C5.01256 4.49597 5.13855 4.19182 5.36625 3.96473L9.11625 0.352534ZM0 10.8363C0 10.1977 0.263392 9.58514 0.732233 9.13353C1.20107 8.68192 1.83696 8.4282 2.5 8.4282H5C5.33152 8.4282 5.64946 8.55506 5.88388 8.78086C6.1183 9.00667 6.25 9.31293 6.25 9.63227C6.25 9.95161 6.1183 10.2579 5.88388 10.4837C5.64946 10.7095 5.33152 10.8363 5 10.8363H2.5V21.6729H17.5V10.8363H15C14.6685 10.8363 14.3505 10.7095 14.1161 10.4837C13.8817 10.2579 13.75 9.95161 13.75 9.63227C13.75 9.31293 13.8817 9.00667 14.1161 8.78086C14.3505 8.55506 14.6685 8.4282 15 8.4282H17.5C18.163 8.4282 18.7989 8.68192 19.2678 9.13353C19.7366 9.58514 20 10.1977 20 10.8363V21.6729C20 22.3116 19.7366 22.9241 19.2678 23.3757C18.7989 23.8273 18.163 24.0811 17.5 24.0811H2.5C1.83696 24.0811 1.20107 23.8273 0.732233 23.3757C0.263392 22.9241 0 22.3116 0 21.6729V10.8363Z" fill="#562135"/>
</svg>
