<svg width="114" height="114" viewBox="0 0 114 114" fill="none" xmlns="http://www.w3.org/2000/svg">
<path fill-rule="evenodd" clip-rule="evenodd" d="M57.415 16.2813C95.9825 16.2813 80.9513 80.1938 57.415 80.1938C35.1854 80.1938 18.8475 16.2813 57.415 16.2813Z" fill="#D45985"/>
<path d="M57 113.5C88.2041 113.5 113.5 88.2041 113.5 57C113.5 25.7959 88.2041 0.5 57 0.5C25.7959 0.5 0.5 25.7959 0.5 57C0.5 88.2041 25.7959 113.5 57 113.5Z" fill="#FFE7DE" stroke="#C3829E"/>
<path fill-rule="evenodd" clip-rule="evenodd" d="M31.1694 46.4959C31.1694 46.4959 33.6957 80.2409 27.581 89.3477C21.4663 98.4545 57.502 89.0034 57.502 89.0034L57.5129 25.8212L31.1694 46.4959Z" fill="#332E2E"/>
<path fill-rule="evenodd" clip-rule="evenodd" d="M83.8311 46.4959C83.8311 46.4959 81.3047 80.2409 87.4212 89.3477C93.5377 98.4545 57.5002 89.0034 57.5002 89.0034L57.4893 25.8212L83.8311 46.4959Z" fill="#332E2E"/>
<path fill-rule="evenodd" clip-rule="evenodd" d="M96.6839 96.51C95.582 93.8604 95.7886 91.2217 86.9609 87.1096C82.8053 86.1274 72.0819 84.7192 70.0558 80.9478C69.0282 79.0413 69.2765 76.3536 69.2765 71.3571L45.8435 71.0998C45.8435 76.1325 46.041 78.8166 44.8938 80.7013C42.7372 84.248 28.701 86.8342 24.346 87.994C16.9283 91.2906 17.7764 93.295 16.7978 95.979C21.9741 101.319 28.1624 105.574 35.0013 108.496C41.8401 111.418 49.1926 112.949 56.6295 112.998C64.0663 113.048 71.4385 111.615 78.3156 108.784C85.1927 105.953 91.437 101.781 96.6839 96.51Z" fill="#FFDBAC"/>
<path opacity="0.11" fill-rule="evenodd" clip-rule="evenodd" d="M69.2819 71.2774L69.2547 75.81C69.0881 77.6856 69.4325 79.5713 70.2515 81.2668C62.1832 87.4649 47.065 85.9697 45.394 70.5072L69.2819 71.2774Z" fill="#8F7A5E"/>
<path fill-rule="evenodd" clip-rule="evenodd" d="M35.633 44.8268C30.2723 47.1646 34.832 58.2559 38.2065 58.207C36.8062 53.8685 35.942 49.3751 35.633 44.8268ZM79.8477 44.825C85.2121 47.1664 80.6505 58.2559 77.276 58.207C78.676 53.8679 79.5396 49.3738 79.8477 44.825Z" fill="#E5C192"/>
<path fill-rule="evenodd" clip-rule="evenodd" d="M57.3878 16.7054C73.1947 16.7054 79.8186 27.9416 80.2246 40.9304C80.7809 58.709 69.9398 79.7679 57.3896 79.7679C45.5009 79.7679 34.3626 57.9877 35.0386 40.0278C35.5097 27.4269 41.9507 16.7054 57.3878 16.7054Z" fill="#FFDBAC"/>
<path fill-rule="evenodd" clip-rule="evenodd" d="M57.5129 25.823C56.4635 30.1925 51.5323 44.2486 31.1693 46.4959C29.0489 11.4787 55.6987 12.3377 57.5129 12.4374C59.3288 12.3377 85.9786 11.4769 83.8564 46.4959C63.4953 44.2486 58.5622 30.1925 57.5129 25.823Z" fill="#494444"/>
<path fill-rule="evenodd" clip-rule="evenodd" d="M96.6839 96.5098C69.735 104.806 34.7613 99.7991 24.346 87.9938C16.9283 91.2903 17.7764 93.2947 16.7978 95.9788C21.9741 101.319 28.1624 105.574 35.0013 108.496C41.8401 111.418 49.1926 112.949 56.6295 112.998C64.0663 113.047 71.4385 111.615 78.3156 108.784C85.1927 105.953 91.437 101.78 96.6839 96.5098Z" fill="#D85B53"/>
<path fill-rule="evenodd" clip-rule="evenodd" d="M78.5609 85.3044L80.5019 85.7629L80.4946 100.475H78.5609V85.3044Z" fill="#D85B53"/>
<path fill-rule="evenodd" clip-rule="evenodd" d="M44.1943 81.5024C44.198 81.526 45.7855 89.569 57.8663 89.569C69.9018 89.569 70.6358 81.7652 70.6376 81.7435L70.9783 82.0751C70.9783 82.0969 69.9561 90.5966 57.8663 90.5966C45.5481 90.5966 43.8101 81.8432 43.8047 81.816L44.1943 81.5024Z" fill="#494444"/>
<path d="M57.7684 94.0688C59.2827 94.0688 60.5104 92.5198 60.5104 90.6091C60.5104 88.6984 59.2827 87.1494 57.7684 87.1494C56.254 87.1494 55.0264 88.6984 55.0264 90.6091C55.0264 92.5198 56.254 94.0688 57.7684 94.0688Z" fill="#494444"/>
</svg>
