<svg width="20" height="20" viewBox="0 0 20 20" fill="none" xmlns="http://www.w3.org/2000/svg">
<path d="M13.6722 1.06034C14.3735 0.375323 15.3165 -0.00564503 16.2969 6.32338e-05C17.2772 0.0057715 18.2158 0.397696 18.909 1.09083C19.6023 1.78397 19.9942 2.72242 19.9999 3.70264C20.0056 4.68286 19.6246 5.62582 18.9395 6.32698L18.1019 7.16448L12.8346 1.89784L13.6722 1.06034ZM11.9494 2.78417L1.93443 12.7979C1.52462 13.2082 1.24016 13.7266 1.11435 14.2927L0.0150657 19.2376C-0.00792653 19.3405 -0.0045564 19.4475 0.0248637 19.5487C0.0542837 19.65 0.1088 19.7421 0.183356 19.8167C0.257911 19.8912 0.35009 19.9457 0.451339 19.9751C0.552589 20.0046 0.659629 20.0079 0.762529 19.9849L5.67801 18.892C6.26325 18.7618 6.79921 18.4673 7.22301 18.0433L17.2167 8.05081L11.9494 2.78417Z" fill="#562135"/>
</svg>
