<svg width="19" height="19" viewBox="0 0 19 19" fill="none" xmlns="http://www.w3.org/2000/svg">
<path fill-rule="evenodd" clip-rule="evenodd" d="M6.82828 0.205892C6.92691 0.304491 6.99402 0.430174 7.02108 0.566984C7.04814 0.703793 7.03394 0.845559 6.98027 0.974281C6.55135 2.00369 6.3313 3.10809 6.33291 4.22328C6.33291 6.46273 7.22253 8.61045 8.80606 10.194C10.3896 11.7775 12.5373 12.6671 14.7768 12.6671C15.892 12.6687 16.9964 12.4487 18.0258 12.0198C18.1544 11.9662 18.2961 11.952 18.4328 11.979C18.5695 12.006 18.6951 12.073 18.7936 12.1715C18.8922 12.27 18.9594 12.3955 18.9865 12.5322C19.0137 12.6689 18.9996 12.8105 18.9462 12.9392C18.1975 14.7342 16.9344 16.2676 15.316 17.3461C13.6975 18.4246 11.7961 19.0001 9.85119 19C4.41052 19 0 14.5904 0 9.14886C0 5.05078 2.5022 1.53814 6.06083 0.0539031C6.18943 0.000443736 6.33101 -0.01365 6.46763 0.0134064C6.60425 0.0404628 6.72976 0.107452 6.82828 0.205892Z" fill="#C3829E"/>
</svg>
