<svg width="35" height="38" viewBox="0 0 35 38" fill="none" xmlns="http://www.w3.org/2000/svg">
<path d="M17.501 19C19.96 19 22.3183 17.9991 24.0571 16.2175C25.7958 14.4359 26.7727 12.0196 26.7727 9.5C26.7727 6.98044 25.7958 4.56408 24.0571 2.78249C22.3183 1.00089 19.96 0 17.501 0C15.042 0 12.6837 1.00089 10.9449 2.78249C9.20616 4.56408 8.22933 6.98044 8.22933 9.5C8.22933 12.0196 9.20616 14.4359 10.9449 16.2175C12.6837 17.9991 15.042 19 17.501 19ZM32.1348 38C34.0448 38 35.5128 36.2235 34.8298 34.3932C33.4899 30.7961 31.1155 27.7007 28.0208 25.5169C24.9261 23.3331 21.2571 22.1638 17.4995 22.1638C13.7418 22.1638 10.0728 23.3331 6.97811 25.5169C3.88341 27.7007 1.50898 30.7961 0.169154 34.3932C-0.510769 36.2235 0.954155 38 2.86412 38H32.1348Z" fill="#562135"/>
</svg>
